<?xml version="1.0" encoding="UTF-8"?>
<!DOCTYPE svg PUBLIC "-//W3C//DTD SVG 1.1//EN" "http://www.w3.org/Graphics/SVG/1.1/DTD/svg11.dtd">
<svg xmlns="http://www.w3.org/2000/svg" xmlns:xlink="http://www.w3.org/1999/xlink" xml:space="preserve">
	<defs>
		<clipPath id="peach">
			<g style="fill:#000000;">
				<path d="M399.5,370.196c36.297-31.094,58.75-74.031,58.75-121.469c0-65.578-49.078-121.422-105.656-151.469
		c-84.094-42.484-80.359-67.422-94.875-67.422s-10.781,24.938-94.859,67.422c-56.578,30.047-105.641,85.891-105.641,151.469
		c0,47.438,22.438,90.375,58.719,121.469c33.906,29.047,160.328,56.359,148.781-66c-2.688-28.563,35.594-30.719,16.719,47.984
		c-8.344,34.844-24.797,42.578-29.094,44.734c-4.313,2.156-4.313,5.375,5.375,6.453C317.281,409.992,366.094,398.821,399.5,370.196z
		" />
				<path d="M87.875,372.43c0,0-73.859,25.453-87.875,86.531c111.078,56.828,215.625-5.484,233.563-30.594
		C120.813,423.32,87.875,372.43,87.875,372.43z" />
				<path d="M424.125,372.43c0,0-34.875,58.437-145.672,55.937c17.922,25.109,122.469,87.422,233.547,30.594
		C497.984,397.883,424.125,372.43,424.125,372.43z" />
			</g>
		</clipPath>
		<clipPath id="person">
			<path d="M3 14s-1 0-1-1 1-4 6-4 6 3 6 4-1 1-1 1zm5-6a3 3 0 1 0 0-6 3 3 0 0 0 0 6" />
		</clipPath>
		<clipPath id="talk">
			<path d="M0 2a2 2 0 0 1 2-2h12a2 2 0 0 1 2 2v8a2 2 0 0 1-2 2H4.414a1 1 0 0 0-.707.293L.854 15.146A.5.5 0 0 1 0 14.793zm5 4a1 1 0 1 0-2 0 1 1 0 0 0 2 0m4 0a1 1 0 1 0-2 0 1 1 0 0 0 2 0m3 1a1 1 0 1 0 0-2 1 1 0 0 0 0 2" />
		</clipPath>
	</defs>
</svg>
